# xmcd
#
# Track frame offsets: 
#        150
#        7242
#        21445
#        39951
#        52971
#        64663
#        74606
#        94453
#        102804
#        113847
#        124785
#        135525
#        142683
#        152874
#        164891
#        175605
#        188798
#        201460
#        210856
#        213556
#        224247
#        236222
#        248027
#        254900
#        266998
#        276101
#        286222
#        296860
#
# Disc length: 4114 seconds
#
# Revision: 0
# Processed by: cddbd v1.5.2PL0 Copyright (c) Steve Scherf et al.
# Submitted via: ExactAudioCopy v1.1
#
DISCID=c910101c
DTITLE=Bill Monroe with Doc Watson - Bill Monroe_Live 1964
DYEAR=2014
DGENRE=Bluegrass
TTITLE0=Introduction
TTITLE1=Oh What Does The Deep Sea Say
TTITLE2=Midnight On The Stormy Deep
TTITLE3=East Tennesse Blues
TTITLE4=Rabbit In A Log
TTITLE5=Watson Blues
TTITLE6=What Would You Give (In Exchange For Your Soul)
TTITLE7=Paddy On The Turnpike
TTITLE8=Bill Monroe and the Bluegrass Boys - Muleskinner Blues
TTITLE9=Bill Monroe and the Bluegrass Boys - Can't You Hear Me Calling
TTITLE10=Bill Monroe and the Bluegrass Boys - True Life Blues
TTITLE11=Bill Monroe and the Bluegrass Boys - Rocky Road Blues
TTITLE12=Bill Monroe and the Bluegrass Boys - The Panhandle Country
TTITLE13=Bill Monroe and the Bluegrass Boys - I Wonder Where You Are T
TTITLE13=onight
TTITLE14=Bill Monroe and the Bluegrass Boys - Gotta Travel On
TTITLE15=Bill Monroe and the Bluegrass Boys - There Is An Old Old Hous
TTITLE15=e
TTITLE16=Bill Monroe and the Bluegrass Boys - My Little Georgia Rose
TTITLE17=Bill Monroe and the Bluegrass Boys - I'm One Of God's Sheep
TTITLE18=Bill Monroe and the Bluegrass Boys - Y'all Come
TTITLE19=Bill Monroe and the Bluegrass Boys - Rawhide
TTITLE20=Bill Monroe and the Bluegrass Boys - On and On
TTITLE21=Bill Monroe and the Bluegrass Boys - Big Sandy River
TTITLE22=Bill Monroe and the Bluegrass Boys - Use To Be
TTITLE23=Bill Monroe and the Bluegrass Boys - Live And Let Live
TTITLE24=Bill Monroe and the Bluegrass Boys - I'm Walking The Dog
TTITLE25=Bill Monroe and the Bluegrass Boys - Uncle Penn
TTITLE26=Bill Monroe and the Bluegrass Boys - Kentucky Waltz
TTITLE27=Bill Monroe and the Bluegrass Boys - Footprints In The Snow
EXTD=
EXTT0=
EXTT1=
EXTT2=
EXTT3=
EXTT4=
EXTT5=
EXTT6=
EXTT7=
EXTT8=
EXTT9=
EXTT10=
EXTT11=
EXTT12=
EXTT13=
EXTT14=
EXTT15=
EXTT16=
EXTT17=
EXTT18=
EXTT19=
EXTT20=
EXTT21=
EXTT22=
EXTT23=
EXTT24=
EXTT25=
EXTT26=
EXTT27=
PLAYORDER=
